<svg width="86" height="43" viewBox="0 0 86 43" fill="none" xmlns="http://www.w3.org/2000/svg">
<path d="M0 0H86V43H0V0Z" fill="#ED2939"/>
<path d="M9.85227 16.5881V13.5455H24.1875V16.5881H18.8438V31H15.196V16.5881H9.85227Z" fill="white"/>
<path d="M26.446 31V28.3409L32.6591 22.5881C33.1875 22.0767 33.6307 21.6165 33.9886 21.2074C34.3523 20.7983 34.6278 20.3977 34.8153 20.0057C35.0028 19.608 35.0966 19.179 35.0966 18.7188C35.0966 18.2074 34.9801 17.767 34.7472 17.3977C34.5142 17.0227 34.196 16.7358 33.7926 16.5369C33.3892 16.3324 32.9318 16.2301 32.4205 16.2301C31.8864 16.2301 31.4205 16.3381 31.0227 16.554C30.625 16.7699 30.3182 17.0795 30.1023 17.483C29.8864 17.8864 29.7784 18.3665 29.7784 18.9233H26.2756C26.2756 17.7812 26.5341 16.7898 27.0511 15.9489C27.5682 15.108 28.2926 14.4574 29.2244 13.9972C30.1562 13.5369 31.2301 13.3068 32.446 13.3068C33.696 13.3068 34.7841 13.5284 35.7102 13.9716C36.642 14.4091 37.3665 15.017 37.8835 15.7955C38.4006 16.5739 38.6591 17.4659 38.6591 18.4716C38.6591 19.1307 38.5284 19.7813 38.267 20.4233C38.0114 21.0653 37.554 21.7784 36.8949 22.5625C36.2358 23.3409 35.3068 24.2756 34.108 25.3665L31.5597 27.8636V27.983H38.8892V31H26.446Z" fill="white"/>
<path d="M41.6655 13.5455H46.2166L51.0234 25.2727H51.228L56.0348 13.5455H60.5859V31H57.0064V19.6392H56.8615L52.3445 30.9148H49.907L45.3899 19.5966H45.245V31H41.6655V13.5455Z" fill="white"/>
<path d="M63.6264 31V13.5455H75.3878V16.5881H67.3168V20.7472H74.7827V23.7898H67.3168V27.9574H75.4219V31H63.6264Z" fill="white"/>
</svg>
